ISO-10303-21;
HEADER;
FILE_DESCRIPTION(('CATIA V5 STEP Exchange','CAx-IF Rec.Pracs.--- Model Styling and Organization---1.5--- 2016-08-15','CAx-IF Rec.Pracs.---Supplemental Geometry---1.0---2011-11-01','CAx-IF Rec.Pracs.--- Composite Materials ---1.1---2010-07-15'),'2;1');

FILE_NAME('C:\\Users\\asimelio\\Desktop\\3D Models\\MyProduct_Step.stp','2026-03-31T21:35:38+00:00',('none'),('none'),'CATIA Version 5-6 Release 2024 SP1','CATIA V5 STEP AP214 Edition 3 v3','none');

FILE_SCHEMA(('AUTOMOTIVE_DESIGN { 1 0 10303 214 3 1 1 1 }'));

ENDSEC;
DATA;
#5=PRODUCT('MyProduct','','',(#2)) ;
#26=PRODUCT('MyPart1','','',(#2)) ;
#672=PRODUCT('MyPart2','','',(#2)) ;
#693=PRODUCT('figura2','','',(#2)) ;
#2=PRODUCT_CONTEXT(' ',#1,'mechanical') ;
#1=APPLICATION_CONTEXT('automotive design') ;
#13=PRODUCT_DEFINITION('',' ',#6,#3) ;
#28=PRODUCT_DEFINITION('',' ',#27,#3) ;
#674=PRODUCT_DEFINITION('',' ',#673,#3) ;
#695=PRODUCT_DEFINITION('',' ',#694,#3) ;
#3=PRODUCT_DEFINITION_CONTEXT('part definition',#1,' ') ;
#16=PRODUCT_DEFINITION_SHAPE(' ',' ',#13) ;
#29=PRODUCT_DEFINITION_SHAPE(' ',' ',#28) ;
#656=PRODUCT_DEFINITION_SHAPE(' ',' ',#655) ;
#675=PRODUCT_DEFINITION_SHAPE(' ',' ',#674) ;
#677=PRODUCT_DEFINITION_SHAPE(' ',' ',#676) ;
#696=PRODUCT_DEFINITION_SHAPE(' ',' ',#695) ;
#1263=PRODUCT_DEFINITION_SHAPE(' ',' ',#1262) ;
#1275=MECHANICAL_DESIGN_GEOMETRIC_PRESENTATION_REPRESENTATION(' ',(#38,#698),#21) ;
#15=SHAPE_REPRESENTATION(' ',(#660,#681,#1267),#21) ;
#24=SHAPE_REPRESENTATION(' ',(#661),#23) ;
#670=SHAPE_REPRESENTATION(' ',(#682),#669) ;
#691=SHAPE_REPRESENTATION(' ',(#1268),#690) ;
#659=ITEM_DEFINED_TRANSFORMATION(' ',' ',#661,#660) ;
#680=ITEM_DEFINED_TRANSFORMATION(' ',' ',#682,#681) ;
#1266=ITEM_DEFINED_TRANSFORMATION(' ',' ',#1268,#1267) ;
#43=AXIS2_PLACEMENT_3D('Plane Axis2P3D',#40,#41,#42) ;
#83=AXIS2_PLACEMENT_3D('Plane Axis2P3D',#80,#81,#82) ;
#114=AXIS2_PLACEMENT_3D('Plane Axis2P3D',#111,#112,#113) ;
#204=AXIS2_PLACEMENT_3D('Plane Axis2P3D',#201,#202,#203) ;
#262=AXIS2_PLACEMENT_3D('Plane Axis2P3D',#259,#260,#261) ;
#279=AXIS2_PLACEMENT_3D('Plane Axis2P3D',#276,#277,#278) ;
#302=AXIS2_PLACEMENT_3D('Plane Axis2P3D',#299,#300,#301) ;
#392=AXIS2_PLACEMENT_3D('Plane Axis2P3D',#389,#390,#391) ;
#408=AXIS2_PLACEMENT_3D('Plane Axis2P3D',#405,#406,#407) ;
#445=AXIS2_PLACEMENT_3D('Plane Axis2P3D',#442,#443,#444) ;
#462=AXIS2_PLACEMENT_3D('Plane Axis2P3D',#459,#460,#461) ;
#520=AXIS2_PLACEMENT_3D('Plane Axis2P3D',#517,#518,#519) ;
#542=AXIS2_PLACEMENT_3D('Plane Axis2P3D',#539,#540,#541) ;
#559=AXIS2_PLACEMENT_3D('Plane Axis2P3D',#556,#557,#558) ;
#576=AXIS2_PLACEMENT_3D('Plane Axis2P3D',#573,#574,#575) ;
#588=AXIS2_PLACEMENT_3D('Plane Axis2P3D',#585,#586,#587) ;
#605=AXIS2_PLACEMENT_3D('Plane Axis2P3D',#602,#603,#604) ;
#625=AXIS2_PLACEMENT_3D('Plane Axis2P3D',#622,#623,#624) ;
#644=AXIS2_PLACEMENT_3D('Plane Axis2P3D',#641,#642,#643) ;
#660=AXIS2_PLACEMENT_3D(' ',#663,#667,#666) ;
#661=AXIS2_PLACEMENT_3D(' ',#662,#665,#664) ;
#681=AXIS2_PLACEMENT_3D(' ',#684,#688,#687) ;
#682=AXIS2_PLACEMENT_3D(' ',#683,#686,#685) ;
#703=AXIS2_PLACEMENT_3D('Plane Axis2P3D',#700,#701,#702) ;
#783=AXIS2_PLACEMENT_3D('Plane Axis2P3D',#780,#781,#782) ;
#877=AXIS2_PLACEMENT_3D('Plane Axis2P3D',#874,#875,#876) ;
#915=AXIS2_PLACEMENT_3D('Plane Axis2P3D',#912,#913,#914) ;
#953=AXIS2_PLACEMENT_3D('Plane Axis2P3D',#950,#951,#952) ;
#977=AXIS2_PLACEMENT_3D('Plane Axis2P3D',#974,#975,#976) ;
#1001=AXIS2_PLACEMENT_3D('Plane Axis2P3D',#998,#999,#1000) ;
#1044=AXIS2_PLACEMENT_3D('Plane Axis2P3D',#1041,#1042,#1043) ;
#1080=AXIS2_PLACEMENT_3D('Plane Axis2P3D',#1077,#1078,#1079) ;
#1130=AXIS2_PLACEMENT_3D('Plane Axis2P3D',#1127,#1128,#1129) ;
#1147=AXIS2_PLACEMENT_3D('Plane Axis2P3D',#1144,#1145,#1146) ;
#1172=AXIS2_PLACEMENT_3D('Plane Axis2P3D',#1169,#1170,#1171) ;
#1184=AXIS2_PLACEMENT_3D('Plane Axis2P3D',#1181,#1182,#1183) ;
#1207=AXIS2_PLACEMENT_3D('Plane Axis2P3D',#1204,#1205,#1206) ;
#1230=AXIS2_PLACEMENT_3D('Plane Axis2P3D',#1227,#1228,#1229) ;
#1247=AXIS2_PLACEMENT_3D('Plane Axis2P3D',#1244,#1245,#1246) ;
#1267=AXIS2_PLACEMENT_3D(' ',#1270,#1274,#1273) ;
#1268=AXIS2_PLACEMENT_3D(' ',#1269,#1272,#1271) ;
#40=CARTESIAN_POINT('Axis2P3D Location',(27.5,10.,37.5)) ;
#45=CARTESIAN_POINT('Line Origine',(27.5,0.,29.99999999)) ;
#49=CARTESIAN_POINT('Vertex',(27.5,0.,37.5)) ;
#51=CARTESIAN_POINT('Vertex',(27.5,0.,22.5)) ;
#54=CARTESIAN_POINT('Line Origine',(27.5,5.,22.5)) ;
#58=CARTESIAN_POINT('Vertex',(27.5,10.,22.5)) ;
#61=CARTESIAN_POINT('Line Origine',(27.5,10.,30.)) ;
#65=CARTESIAN_POINT('Vertex',(27.5,10.,37.5)) ;
#68=CARTESIAN_POINT('Line Origine',(27.5,5.,37.5)) ;
#80=CARTESIAN_POINT('Axis2P3D Location',(62.5,10.,37.5)) ;
#85=CARTESIAN_POINT('Line Origine',(45.,0.,37.5)) ;
#89=CARTESIAN_POINT('Vertex',(62.5,0.,37.5)) ;
#92=CARTESIAN_POINT('Line Origine',(45.,10.,37.5)) ;
#96=CARTESIAN_POINT('Vertex',(62.5,10.,37.5)) ;
#99=CARTESIAN_POINT('Line Origine',(62.5,5.,37.5)) ;
#111=CARTESIAN_POINT('Axis2P3D Location',(0.,10.,60.)) ;
#116=CARTESIAN_POINT('Line Origine',(85.,10.,60.)) ;
#120=CARTESIAN_POINT('Vertex',(80.,10.,60.)) ;
#122=CARTESIAN_POINT('Vertex',(90.,10.,60.)) ;
#125=CARTESIAN_POINT('Line Origine',(80.,10.,35.)) ;
#129=CARTESIAN_POINT('Vertex',(80.,10.,10.)) ;
#132=CARTESIAN_POINT('Line Origine',(45.,10.,10.)) ;
#136=CARTESIAN_POINT('Vertex',(10.,10.,10.)) ;
#139=CARTESIAN_POINT('Line Origine',(10.,10.,35.)) ;
#143=CARTESIAN_POINT('Vertex',(10.,10.,60.)) ;
#146=CARTESIAN_POINT('Line Origine',(5.,10.,60.)) ;
#150=CARTESIAN_POINT('Vertex',(0.,10.,60.)) ;
#153=CARTESIAN_POINT('Line Origine',(0.,10.,65.)) ;
#157=CARTESIAN_POINT('Vertex',(0.,10.,70.)) ;
#160=CARTESIAN_POINT('Line Origine',(45.,10.,70.)) ;
#164=CARTESIAN_POINT('Vertex',(90.,10.,70.)) ;
#167=CARTESIAN_POINT('Line Origine',(90.,10.,65.)) ;
#182=CARTESIAN_POINT('Line Origine',(45.,10.,22.5)) ;
#186=CARTESIAN_POINT('Vertex',(62.5,10.,22.5)) ;
#189=CARTESIAN_POINT('Line Origine',(62.5,10.,30.)) ;
#201=CARTESIAN_POINT('Axis2P3D Location',(0.,0.,70.)) ;
#206=CARTESIAN_POINT('Line Origine',(45.,0.,70.)) ;
#210=CARTESIAN_POINT('Vertex',(0.,0.,70.)) ;
#212=CARTESIAN_POINT('Vertex',(90.,0.,70.)) ;
#215=CARTESIAN_POINT('Line Origine',(0.,0.,35.)) ;
#219=CARTESIAN_POINT('Vertex',(0.,0.,0.)) ;
#222=CARTESIAN_POINT('Line Origine',(45.,0.,0.)) ;
#226=CARTESIAN_POINT('Vertex',(90.,0.,0.)) ;
#229=CARTESIAN_POINT('Line Origine',(90.,0.,35.)) ;
#240=CARTESIAN_POINT('Line Origine',(62.5,0.,30.00000001)) ;
#244=CARTESIAN_POINT('Vertex',(62.5,0.,22.5)) ;
#247=CARTESIAN_POINT('Line Origine',(45.00000001,0.,22.5)) ;
#259=CARTESIAN_POINT('Axis2P3D Location',(62.5,10.,22.5)) ;
#264=CARTESIAN_POINT('Line Origine',(62.5,5.,22.5)) ;
#276=CARTESIAN_POINT('Axis2P3D Location',(80.,60.,60.)) ;
#281=CARTESIAN_POINT('Line Origine',(80.,30.,10.)) ;
#285=CARTESIAN_POINT('Vertex',(80.,50.,10.)) ;
#288=CARTESIAN_POINT('Line Origine',(80.,30.,34.99999999)) ;
#299=CARTESIAN_POINT('Axis2P3D Location',(0.,60.,10.)) ;
#304=CARTESIAN_POINT('Line Origine',(45.,60.,10.)) ;
#308=CARTESIAN_POINT('Vertex',(0.,60.,10.)) ;
#310=CARTESIAN_POINT('Vertex',(90.,60.,10.)) ;
#313=CARTESIAN_POINT('Line Origine',(0.,55.,10.)) ;
#317=CARTESIAN_POINT('Vertex',(0.,50.,10.)) ;
#320=CARTESIAN_POINT('Line Origine',(5.,50.,10.)) ;
#324=CARTESIAN_POINT('Vertex',(10.,50.,10.)) ;
#327=CARTESIAN_POINT('Line Origine',(10.,30.,10.)) ;
#332=CARTESIAN_POINT('Line Origine',(85.,50.,10.)) ;
#336=CARTESIAN_POINT('Vertex',(90.,50.,10.)) ;
#339=CARTESIAN_POINT('Line Origine',(90.,55.,10.)) ;
#354=CARTESIAN_POINT('Line Origine',(45.,27.5,10.)) ;
#358=CARTESIAN_POINT('Vertex',(37.5,27.5,10.)) ;
#360=CARTESIAN_POINT('Vertex',(52.5,27.5,10.)) ;
#363=CARTESIAN_POINT('Line Origine',(37.5,35.,10.)) ;
#367=CARTESIAN_POINT('Vertex',(37.5,42.5,10.)) ;
#370=CARTESIAN_POINT('Line Origine',(45.,42.5,10.)) ;
#374=CARTESIAN_POINT('Vertex',(52.5,42.5,10.)) ;
#377=CARTESIAN_POINT('Line Origine',(52.5,35.,10.)) ;
#389=CARTESIAN_POINT('Axis2P3D Location',(10.,60.,10.)) ;
#394=CARTESIAN_POINT('Line Origine',(10.,29.99999999,35.00000001)) ;
#405=CARTESIAN_POINT('Axis2P3D Location',(0.,0.,0.)) ;
#410=CARTESIAN_POINT('Line Origine',(0.,5.,70.)) ;
#415=CARTESIAN_POINT('Line Origine',(0.,30.,35.)) ;
#420=CARTESIAN_POINT('Line Origine',(0.,60.,5.)) ;
#424=CARTESIAN_POINT('Vertex',(0.,60.,0.)) ;
#427=CARTESIAN_POINT('Line Origine',(0.,30.,0.)) ;
#442=CARTESIAN_POINT('Axis2P3D Location',(0.,10.,70.)) ;
#447=CARTESIAN_POINT('Line Origine',(90.,5.,70.)) ;
#459=CARTESIAN_POINT('Axis2P3D Location',(0.,0.,0.)) ;
#464=CARTESIAN_POINT('Line Origine',(45.,60.,0.)) ;
#468=CARTESIAN_POINT('Vertex',(90.,60.,0.)) ;
#471=CARTESIAN_POINT('Line Origine',(90.,30.,0.)) ;
#482=CARTESIAN_POINT('Line Origine',(52.5,35.,0.)) ;
#486=CARTESIAN_POINT('Vertex',(52.5,42.5,-1.7763568394E-15)) ;
#488=CARTESIAN_POINT('Vertex',(52.5,27.5,-1.7763568394E-15)) ;
#491=CARTESIAN_POINT('Line Origine',(45.,42.5,0.)) ;
#495=CARTESIAN_POINT('Vertex',(37.5,42.5,-1.7763568394E-15)) ;
#498=CARTESIAN_POINT('Line Origine',(37.5,35.,0.)) ;
#502=CARTESIAN_POINT('Vertex',(37.5,27.5,-1.7763568394E-15)) ;
#505=CARTESIAN_POINT('Line Origine',(45.,27.5,0.)) ;
#517=CARTESIAN_POINT('Axis2P3D Location',(52.5,42.5,10.)) ;
#522=CARTESIAN_POINT('Line Origine',(52.5,27.5,5.)) ;
#527=CARTESIAN_POINT('Line Origine',(52.5,42.5,5.)) ;
#539=CARTESIAN_POINT('Axis2P3D Location',(37.5,42.5,10.)) ;
#544=CARTESIAN_POINT('Line Origine',(37.5,42.5,5.)) ;
#556=CARTESIAN_POINT('Axis2P3D Location',(37.5,27.5,10.)) ;
#561=CARTESIAN_POINT('Line Origine',(37.5,27.5,5.)) ;
#573=CARTESIAN_POINT('Axis2P3D Location',(52.5,27.5,10.)) ;
#585=CARTESIAN_POINT('Axis2P3D Location',(0.,60.,1.99840144433E-15)) ;
#590=CARTESIAN_POINT('Line Origine',(90.,60.,5.)) ;
#602=CARTESIAN_POINT('Axis2P3D Location',(90.,0.,0.)) ;
#607=CARTESIAN_POINT('Line Origine',(90.,30.,35.)) ;
#622=CARTESIAN_POINT('Axis2P3D Location',(0.,50.,10.)) ;
#641=CARTESIAN_POINT('Axis2P3D Location',(27.5,10.,22.5)) ;
#662=CARTESIAN_POINT('NONE',(0.,0.,0.)) ;
#663=CARTESIAN_POINT('NONE',(0.,0.,0.)) ;
#683=CARTESIAN_POINT('NONE',(0.,0.,0.)) ;
#684=CARTESIAN_POINT('NONE',(0.,0.,0.)) ;
#700=CARTESIAN_POINT('Axis2P3D Location',(0.,0.,0.)) ;
#705=CARTESIAN_POINT('Line Origine',(0.,0.,22.)) ;
#709=CARTESIAN_POINT('Vertex',(32.,0.,22.)) ;
#711=CARTESIAN_POINT('Vertex',(-32.,0.,22.)) ;
#714=CARTESIAN_POINT('Line Origine',(32.,0.,11.)) ;
#718=CARTESIAN_POINT('Vertex',(32.,0.,0.)) ;
#721=CARTESIAN_POINT('Line Origine',(20.0358983849,0.,0.)) ;
#725=CARTESIAN_POINT('Vertex',(8.07179676972,0.,0.)) ;
#728=CARTESIAN_POINT('Line Origine',(11.5358983849,0.,6.)) ;
#732=CARTESIAN_POINT('Vertex',(15.,0.,12.)) ;
#735=CARTESIAN_POINT('Line Origine',(7.5,0.,12.)) ;
#739=CARTESIAN_POINT('Vertex',(0.,0.,12.)) ;
#742=CARTESIAN_POINT('Line Origine',(-7.5,0.,12.)) ;
#746=CARTESIAN_POINT('Vertex',(-15.,0.,12.)) ;
#749=CARTESIAN_POINT('Line Origine',(-11.5358983849,0.,6.)) ;
#753=CARTESIAN_POINT('Vertex',(-8.07179676972,0.,3.5527136788E-15)) ;
#756=CARTESIAN_POINT('Line Origine',(-20.0358983849,0.,0.)) ;
#760=CARTESIAN_POINT('Vertex',(-32.,0.,0.)) ;
#763=CARTESIAN_POINT('Line Origine',(-32.,0.,11.)) ;
#780=CARTESIAN_POINT('Axis2P3D Location',(0.,-85.,0.)) ;
#785=CARTESIAN_POINT('Line Origine',(0.,-85.,22.)) ;
#789=CARTESIAN_POINT('Vertex',(6.,-85.,22.)) ;
#791=CARTESIAN_POINT('Vertex',(32.,-85.,22.)) ;
#794=CARTESIAN_POINT('Line Origine',(6.,-85.,56.1088867188)) ;
#798=CARTESIAN_POINT('Vertex',(6.,-85.,62.)) ;
#801=CARTESIAN_POINT('Line Origine',(0.,-85.,62.)) ;
#805=CARTESIAN_POINT('Vertex',(-6.,-85.,62.)) ;
#808=CARTESIAN_POINT('Line Origine',(-6.,-85.,56.1088867188)) ;
#812=CARTESIAN_POINT('Vertex',(-6.,-85.,22.)) ;
#815=CARTESIAN_POINT('Line Origine',(0.,-85.,22.)) ;
#819=CARTESIAN_POINT('Vertex',(-32.,-85.,22.)) ;
#822=CARTESIAN_POINT('Line Origine',(-32.,-85.,56.1088867188)) ;
#826=CARTESIAN_POINT('Vertex',(-32.,-85.,59.)) ;
#830=CARTESIAN_POINT('Control Point',(-16.,-85.,75.)) ;
#831=CARTESIAN_POINT('Control Point',(-32.0000000014,-85.,58.9999999986)) ;
#832=CARTESIAN_POINT('Vertex',(-16.,-85.,75.)) ;
#835=CARTESIAN_POINT('Line Origine',(0.,-85.,75.)) ;
#839=CARTESIAN_POINT('Vertex',(0.,-85.,75.)) ;
#842=CARTESIAN_POINT('Line Origine',(0.,-85.,75.)) ;
#846=CARTESIAN_POINT('Vertex',(16.,-85.,75.)) ;
#850=CARTESIAN_POINT('Control Point',(16.,-85.,75.)) ;
#851=CARTESIAN_POINT('Control Point',(32.0000000014,-85.,58.9999999986)) ;
#852=CARTESIAN_POINT('Vertex',(32.,-85.,59.)) ;
#855=CARTESIAN_POINT('Line Origine',(32.,-85.,56.1088867188)) ;
#874=CARTESIAN_POINT('Axis2P3D Location',(-32.,0.,59.)) ;
#879=CARTESIAN_POINT('Line Origine',(-32.,-50.,0.)) ;
#883=CARTESIAN_POINT('Vertex',(-32.,-100.,0.)) ;
#886=CARTESIAN_POINT('Line Origine',(-32.,-100.,29.5)) ;
#890=CARTESIAN_POINT('Vertex',(-32.,-100.,59.)) ;
#893=CARTESIAN_POINT('Line Origine',(-32.,-92.5,59.)) ;
#898=CARTESIAN_POINT('Line Origine',(-32.,-42.5,22.)) ;
#912=CARTESIAN_POINT('Axis2P3D Location',(32.,0.,59.)) ;
#917=CARTESIAN_POINT('Line Origine',(32.,-42.5,22.)) ;
#922=CARTESIAN_POINT('Line Origine',(32.,-92.5,59.)) ;
#926=CARTESIAN_POINT('Vertex',(32.,-100.,59.)) ;
#929=CARTESIAN_POINT('Line Origine',(32.,-100.,29.5)) ;
#933=CARTESIAN_POINT('Vertex',(32.,-100.,0.)) ;
#936=CARTESIAN_POINT('Line Origine',(32.,-50.,0.)) ;
#950=CARTESIAN_POINT('Axis2P3D Location',(32.,0.,0.)) ;
#955=CARTESIAN_POINT('Line Origine',(20.0358983849,-100.,0.)) ;
#959=CARTESIAN_POINT('Vertex',(8.07179676972,-100.,0.)) ;
#962=CARTESIAN_POINT('Line Origine',(8.07179676972,-50.,0.)) ;
#974=CARTESIAN_POINT('Axis2P3D Location',(15.,0.,12.)) ;
#979=CARTESIAN_POINT('Line Origine',(11.5358983849,-100.,6.)) ;
#983=CARTESIAN_POINT('Vertex',(15.,-100.,12.)) ;
#986=CARTESIAN_POINT('Line Origine',(15.,-50.,12.)) ;
#998=CARTESIAN_POINT('Axis2P3D Location',(15.,0.,12.)) ;
#1003=CARTESIAN_POINT('Line Origine',(7.5,-100.,12.)) ;
#1007=CARTESIAN_POINT('Vertex',(0.,-100.,12.)) ;
#1010=CARTESIAN_POINT('Line Origine',(0.,-50.,12.)) ;
#1022=CARTESIAN_POINT('Line Origine',(-7.5,-100.,12.)) ;
#1026=CARTESIAN_POINT('Vertex',(-15.,-100.,12.)) ;
#1029=CARTESIAN_POINT('Line Origine',(-15.,-50.,12.)) ;
#1041=CARTESIAN_POINT('Axis2P3D Location',(-15.,0.,12.)) ;
#1046=CARTESIAN_POINT('Line Origine',(-11.5358983849,-100.,6.)) ;
#1050=CARTESIAN_POINT('Vertex',(-8.07179676972,-100.,3.5527136788E-15)) ;
#1053=CARTESIAN_POINT('Line Origine',(-8.07179676972,-50.,1.7763568394E-15)) ;
#1065=CARTESIAN_POINT('Line Origine',(-20.0358983849,-100.,0.)) ;
#1077=CARTESIAN_POINT('Axis2P3D Location',(0.,0.,75.)) ;
#1082=CARTESIAN_POINT('Line Origine',(-16.,-92.5,75.)) ;
#1086=CARTESIAN_POINT('Vertex',(-16.,-100.,75.)) ;
#1089=CARTESIAN_POINT('Line Origine',(-8.,-100.,75.)) ;
#1093=CARTESIAN_POINT('Vertex',(0.,-100.,75.)) ;
#1096=CARTESIAN_POINT('Line Origine',(0.,-92.5,75.)) ;
#1108=CARTESIAN_POINT('Line Origine',(8.,-100.,75.)) ;
#1112=CARTESIAN_POINT('Vertex',(16.,-100.,75.)) ;
#1115=CARTESIAN_POINT('Line Origine',(16.,-92.5,75.)) ;
#1127=CARTESIAN_POINT('Axis2P3D Location',(16.,0.,75.)) ;
#1132=CARTESIAN_POINT('Line Origine',(24.,-100.,67.)) ;
#1144=CARTESIAN_POINT('Axis2P3D Location',(0.,-100.,0.)) ;
#1149=CARTESIAN_POINT('Line Origine',(-24.,-100.,67.)) ;
#1169=CARTESIAN_POINT('Axis2P3D Location',(-16.,0.,75.)) ;
#1181=CARTESIAN_POINT('Axis2P3D Location',(6.,0.,62.)) ;
#1186=CARTESIAN_POINT('Line Origine',(6.,-50.,42.)) ;
#1190=CARTESIAN_POINT('Vertex',(6.,-15.,22.)) ;
#1193=CARTESIAN_POINT('Line Origine',(6.,-50.,22.)) ;
#1204=CARTESIAN_POINT('Axis2P3D Location',(-6.,0.,22.)) ;
#1209=CARTESIAN_POINT('Line Origine',(-6.,-50.,42.00000001)) ;
#1213=CARTESIAN_POINT('Vertex',(-6.,-15.,22.)) ;
#1216=CARTESIAN_POINT('Line Origine',(-6.,-50.,22.)) ;
#1227=CARTESIAN_POINT('Axis2P3D Location',(6.,-85.,62.)) ;
#1232=CARTESIAN_POINT('Line Origine',(8.881784197E-16,-15.,22.)) ;
#1244=CARTESIAN_POINT('Axis2P3D Location',(6.,0.,22.)) ;
#1269=CARTESIAN_POINT('NONE',(0.,0.,0.)) ;
#1270=CARTESIAN_POINT('NONE',(0.,0.,0.)) ;
#41=DIRECTION('Axis2P3D Direction',(-1.,-0.,-0.)) ;
#42=DIRECTION('Axis2P3D XDirection',(0.,0.,-1.)) ;
#46=DIRECTION('Vector Direction',(0.,0.,-1.)) ;
#55=DIRECTION('Vector Direction',(0.,-1.,0.)) ;
#62=DIRECTION('Vector Direction',(0.,0.,-1.)) ;
#69=DIRECTION('Vector Direction',(0.,-1.,0.)) ;
#81=DIRECTION('Axis2P3D Direction',(0.,0.,1.)) ;
#82=DIRECTION('Axis2P3D XDirection',(-1.,0.,0.)) ;
#86=DIRECTION('Vector Direction',(-1.,0.,0.)) ;
#93=DIRECTION('Vector Direction',(-1.,0.,0.)) ;
#100=DIRECTION('Vector Direction',(0.,-1.,0.)) ;
#112=DIRECTION('Axis2P3D Direction',(0.,1.,0.)) ;
#113=DIRECTION('Axis2P3D XDirection',(0.,0.,1.)) ;
#117=DIRECTION('Vector Direction',(1.,0.,0.)) ;
#126=DIRECTION('Vector Direction',(0.,0.,-1.)) ;
#133=DIRECTION('Vector Direction',(-1.,0.,0.)) ;
#140=DIRECTION('Vector Direction',(0.,0.,1.)) ;
#147=DIRECTION('Vector Direction',(1.,0.,0.)) ;
#154=DIRECTION('Vector Direction',(0.,0.,1.)) ;
#161=DIRECTION('Vector Direction',(1.,0.,0.)) ;
#168=DIRECTION('Vector Direction',(0.,0.,1.)) ;
#183=DIRECTION('Vector Direction',(1.,0.,0.)) ;
#190=DIRECTION('Vector Direction',(0.,0.,1.)) ;
#202=DIRECTION('Axis2P3D Direction',(0.,-1.,0.)) ;
#203=DIRECTION('Axis2P3D XDirection',(0.,0.,-1.)) ;
#207=DIRECTION('Vector Direction',(1.,0.,0.)) ;
#216=DIRECTION('Vector Direction',(0.,0.,-1.)) ;
#223=DIRECTION('Vector Direction',(1.,0.,0.)) ;
#230=DIRECTION('Vector Direction',(0.,0.,-1.)) ;
#241=DIRECTION('Vector Direction',(0.,0.,1.)) ;
#248=DIRECTION('Vector Direction',(1.,0.,0.)) ;
#260=DIRECTION('Axis2P3D Direction',(1.,0.,-0.)) ;
#261=DIRECTION('Axis2P3D XDirection',(0.,0.,1.)) ;
#265=DIRECTION('Vector Direction',(0.,-1.,0.)) ;
#277=DIRECTION('Axis2P3D Direction',(-1.,-0.,-0.)) ;
#278=DIRECTION('Axis2P3D XDirection',(0.,0.,-1.)) ;
#282=DIRECTION('Vector Direction',(0.,-1.,0.)) ;
#289=DIRECTION('Vector Direction',(0.,0.624695047402,-0.780868809565)) ;
#300=DIRECTION('Axis2P3D Direction',(-0.,0.,1.)) ;
#301=DIRECTION('Axis2P3D XDirection',(0.,-1.,0.)) ;
#305=DIRECTION('Vector Direction',(1.,0.,0.)) ;
#314=DIRECTION('Vector Direction',(0.,-1.,0.)) ;
#321=DIRECTION('Vector Direction',(1.,0.,0.)) ;
#328=DIRECTION('Vector Direction',(0.,-1.,0.)) ;
#333=DIRECTION('Vector Direction',(1.,0.,0.)) ;
#340=DIRECTION('Vector Direction',(0.,-1.,0.)) ;
#355=DIRECTION('Vector Direction',(-1.,0.,0.)) ;
#364=DIRECTION('Vector Direction',(0.,1.,0.)) ;
#371=DIRECTION('Vector Direction',(1.,0.,0.)) ;
#378=DIRECTION('Vector Direction',(0.,-1.,0.)) ;
#390=DIRECTION('Axis2P3D Direction',(1.,0.,-0.)) ;
#391=DIRECTION('Axis2P3D XDirection',(0.,0.,1.)) ;
#395=DIRECTION('Vector Direction',(0.,0.624695047593,-0.780868809413)) ;
#406=DIRECTION('Axis2P3D Direction',(1.,0.,0.)) ;
#407=DIRECTION('Axis2P3D XDirection',(0.,1.,0.)) ;
#411=DIRECTION('Vector Direction',(0.,-1.,0.)) ;
#416=DIRECTION('Vector Direction',(0.,-0.624695047554,0.780868809443)) ;
#421=DIRECTION('Vector Direction',(0.,0.,1.)) ;
#428=DIRECTION('Vector Direction',(0.,1.,0.)) ;
#443=DIRECTION('Axis2P3D Direction',(-0.,0.,1.)) ;
#444=DIRECTION('Axis2P3D XDirection',(0.,-1.,0.)) ;
#448=DIRECTION('Vector Direction',(0.,-1.,0.)) ;
#460=DIRECTION('Axis2P3D Direction',(0.,0.,-1.)) ;
#461=DIRECTION('Axis2P3D XDirection',(0.,1.,0.)) ;
#465=DIRECTION('Vector Direction',(1.,0.,0.)) ;
#472=DIRECTION('Vector Direction',(0.,1.,0.)) ;
#483=DIRECTION('Vector Direction',(0.,-1.,0.)) ;
#492=DIRECTION('Vector Direction',(1.,0.,0.)) ;
#499=DIRECTION('Vector Direction',(0.,1.,0.)) ;
#506=DIRECTION('Vector Direction',(-1.,0.,0.)) ;
#518=DIRECTION('Axis2P3D Direction',(1.,0.,0.)) ;
#519=DIRECTION('Axis2P3D XDirection',(0.,-1.,0.)) ;
#523=DIRECTION('Vector Direction',(0.,0.,-1.)) ;
#528=DIRECTION('Vector Direction',(0.,0.,-1.)) ;
#540=DIRECTION('Axis2P3D Direction',(-0.,1.,0.)) ;
#541=DIRECTION('Axis2P3D XDirection',(1.,0.,0.)) ;
#545=DIRECTION('Vector Direction',(0.,0.,-1.)) ;
#557=DIRECTION('Axis2P3D Direction',(-1.,0.,0.)) ;
#558=DIRECTION('Axis2P3D XDirection',(0.,1.,0.)) ;
#562=DIRECTION('Vector Direction',(0.,0.,-1.)) ;
#574=DIRECTION('Axis2P3D Direction',(-0.,-1.,-0.)) ;
#575=DIRECTION('Axis2P3D XDirection',(-1.,0.,0.)) ;
#586=DIRECTION('Axis2P3D Direction',(0.,1.,0.)) ;
#587=DIRECTION('Axis2P3D XDirection',(0.,0.,1.)) ;
#591=DIRECTION('Vector Direction',(0.,0.,1.)) ;
#603=DIRECTION('Axis2P3D Direction',(1.,0.,0.)) ;
#604=DIRECTION('Axis2P3D XDirection',(0.,1.,0.)) ;
#608=DIRECTION('Vector Direction',(0.,-0.624695047554,0.780868809443)) ;
#623=DIRECTION('Axis2P3D Direction',(-0.,0.780868809443,0.624695047554)) ;
#624=DIRECTION('Axis2P3D XDirection',(0.,-0.624695047554,0.780868809443)) ;
#642=DIRECTION('Axis2P3D Direction',(0.,0.,-1.)) ;
#643=DIRECTION('Axis2P3D XDirection',(1.,0.,0.)) ;
#664=DIRECTION('NONE',(1.,0.,0.)) ;
#665=DIRECTION('NONE',(0.,0.,1.)) ;
#666=DIRECTION('NONE',(1.,0.,0.)) ;
#667=DIRECTION('NONE',(0.,0.,1.)) ;
#685=DIRECTION('NONE',(1.,0.,0.)) ;
#686=DIRECTION('NONE',(0.,0.,1.)) ;
#687=DIRECTION('NONE',(1.,0.,0.)) ;
#688=DIRECTION('NONE',(0.,0.,1.)) ;
#701=DIRECTION('Axis2P3D Direction',(0.,1.,-0.)) ;
#702=DIRECTION('Axis2P3D XDirection',(-1.,0.,0.)) ;
#706=DIRECTION('Vector Direction',(1.,0.,0.)) ;
#715=DIRECTION('Vector Direction',(0.,0.,-1.)) ;
#722=DIRECTION('Vector Direction',(-1.,0.,0.)) ;
#729=DIRECTION('Vector Direction',(-0.5,0.,-0.866025403784)) ;
#736=DIRECTION('Vector Direction',(-1.,0.,0.)) ;
#743=DIRECTION('Vector Direction',(1.,0.,0.)) ;
#750=DIRECTION('Vector Direction',(0.5,0.,-0.866025403784)) ;
#757=DIRECTION('Vector Direction',(1.,0.,0.)) ;
#764=DIRECTION('Vector Direction',(0.,0.,-1.)) ;
#781=DIRECTION('Axis2P3D Direction',(0.,1.,-0.)) ;
#782=DIRECTION('Axis2P3D XDirection',(-1.,0.,0.)) ;
#786=DIRECTION('Vector Direction',(-1.,0.,0.)) ;
#795=DIRECTION('Vector Direction',(0.,0.,1.)) ;
#802=DIRECTION('Vector Direction',(-1.,0.,0.)) ;
#809=DIRECTION('Vector Direction',(0.,0.,1.)) ;
#816=DIRECTION('Vector Direction',(-1.,0.,0.)) ;
#823=DIRECTION('Vector Direction',(0.,0.,1.)) ;
#836=DIRECTION('Vector Direction',(-1.,0.,0.)) ;
#843=DIRECTION('Vector Direction',(-1.,0.,0.)) ;
#856=DIRECTION('Vector Direction',(0.,0.,1.)) ;
#875=DIRECTION('Axis2P3D Direction',(-1.,-0.,-0.)) ;
#876=DIRECTION('Axis2P3D XDirection',(0.,0.,-1.)) ;
#880=DIRECTION('Vector Direction',(0.,-1.,0.)) ;
#887=DIRECTION('Vector Direction',(0.,0.,-1.)) ;
#894=DIRECTION('Vector Direction',(0.,-1.,0.)) ;
#899=DIRECTION('Vector Direction',(0.,-1.,0.)) ;
#913=DIRECTION('Axis2P3D Direction',(-1.,-0.,-0.)) ;
#914=DIRECTION('Axis2P3D XDirection',(0.,0.,-1.)) ;
#918=DIRECTION('Vector Direction',(0.,-1.,0.)) ;
#923=DIRECTION('Vector Direction',(0.,-1.,0.)) ;
#930=DIRECTION('Vector Direction',(0.,0.,-1.)) ;
#937=DIRECTION('Vector Direction',(0.,-1.,0.)) ;
#951=DIRECTION('Axis2P3D Direction',(0.,0.,1.)) ;
#952=DIRECTION('Axis2P3D XDirection',(-1.,0.,0.)) ;
#956=DIRECTION('Vector Direction',(-1.,0.,0.)) ;
#963=DIRECTION('Vector Direction',(0.,-1.,0.)) ;
#975=DIRECTION('Axis2P3D Direction',(-0.866025403784,0.,0.5)) ;
#976=DIRECTION('Axis2P3D XDirection',(-0.5,0.,-0.866025403784)) ;
#980=DIRECTION('Vector Direction',(-0.5,0.,-0.866025403784)) ;
#987=DIRECTION('Vector Direction',(0.,-1.,0.)) ;
#999=DIRECTION('Axis2P3D Direction',(0.,0.,1.)) ;
#1000=DIRECTION('Axis2P3D XDirection',(-1.,0.,0.)) ;
#1004=DIRECTION('Vector Direction',(-1.,0.,0.)) ;
#1011=DIRECTION('Vector Direction',(0.,-1.,0.)) ;
#1023=DIRECTION('Vector Direction',(1.,0.,0.)) ;
#1030=DIRECTION('Vector Direction',(0.,-1.,0.)) ;
#1042=DIRECTION('Axis2P3D Direction',(-0.866025403784,-0.,-0.5)) ;
#1043=DIRECTION('Axis2P3D XDirection',(0.5,0.,-0.866025403784)) ;
#1047=DIRECTION('Vector Direction',(0.5,0.,-0.866025403784)) ;
#1054=DIRECTION('Vector Direction',(0.,-1.,0.)) ;
#1066=DIRECTION('Vector Direction',(1.,0.,0.)) ;
#1078=DIRECTION('Axis2P3D Direction',(0.,0.,-1.)) ;
#1079=DIRECTION('Axis2P3D XDirection',(1.,0.,0.)) ;
#1083=DIRECTION('Vector Direction',(0.,-1.,0.)) ;
#1090=DIRECTION('Vector Direction',(-1.,0.,0.)) ;
#1097=DIRECTION('Vector Direction',(0.,-1.,0.)) ;
#1109=DIRECTION('Vector Direction',(1.,0.,0.)) ;
#1116=DIRECTION('Vector Direction',(0.,-1.,0.)) ;
#1128=DIRECTION('Axis2P3D Direction',(-0.707106781187,-0.,-0.707106781187)) ;
#1129=DIRECTION('Axis2P3D XDirection',(0.707106781187,0.,-0.707106781187)) ;
#1133=DIRECTION('Vector Direction',(0.707106781187,0.,-0.707106781187)) ;
#1145=DIRECTION('Axis2P3D Direction',(0.,1.,-0.)) ;
#1146=DIRECTION('Axis2P3D XDirection',(-1.,0.,0.)) ;
#1150=DIRECTION('Vector Direction',(-0.707106781187,0.,-0.707106781187)) ;
#1170=DIRECTION('Axis2P3D Direction',(-0.707106781187,0.,0.707106781187)) ;
#1171=DIRECTION('Axis2P3D XDirection',(-0.707106781187,0.,-0.707106781187)) ;
#1182=DIRECTION('Axis2P3D Direction',(-1.,-0.,-0.)) ;
#1183=DIRECTION('Axis2P3D XDirection',(0.,0.,-1.)) ;
#1187=DIRECTION('Vector Direction',(0.,0.868243142124,-0.496138938357)) ;
#1194=DIRECTION('Vector Direction',(0.,-1.,0.)) ;
#1205=DIRECTION('Axis2P3D Direction',(1.,0.,-0.)) ;
#1206=DIRECTION('Axis2P3D XDirection',(0.,0.,1.)) ;
#1210=DIRECTION('Vector Direction',(0.,0.868243142018,-0.496138938544)) ;
#1217=DIRECTION('Vector Direction',(0.,-1.,0.)) ;
#1228=DIRECTION('Axis2P3D Direction',(0.,0.496138938357,0.868243142124)) ;
#1229=DIRECTION('Axis2P3D XDirection',(0.,0.868243142124,-0.496138938357)) ;
#1233=DIRECTION('Vector Direction',(-1.,0.,0.)) ;
#1245=DIRECTION('Axis2P3D Direction',(0.,0.,-1.)) ;
#1246=DIRECTION('Axis2P3D XDirection',(1.,0.,0.)) ;
#1271=DIRECTION('NONE',(1.,0.,0.)) ;
#1272=DIRECTION('NONE',(0.,0.,1.)) ;
#1273=DIRECTION('NONE',(1.,0.,0.)) ;
#1274=DIRECTION('NONE',(0.,0.,1.)) ;
#8=PRODUCT_RELATED_PRODUCT_CATEGORY('part',$,(#26,#672,#693)) ;
#11=PRODUCT_RELATED_PRODUCT_CATEGORY('part',$,(#5)) ;
#7=PRODUCT_CATEGORY('part','specification') ;
#10=PRODUCT_CATEGORY('part','specification') ;
#38=STYLED_ITEM(' ',(#37),#30) ;
#698=STYLED_ITEM(' ',(#37),#697) ;
#37=PRESENTATION_STYLE_ASSIGNMENT((#36)) ;
#36=SURFACE_STYLE_USAGE(.BOTH.,#35) ;
#35=SURFACE_SIDE_STYLE(' ',(#34)) ;
#34=SURFACE_STYLE_FILL_AREA(#33) ;
#33=FILL_AREA_STYLE(' ',(#32)) ;
#32=FILL_AREA_STYLE_COLOUR(' ',#31) ;
#47=VECTOR('Line Direction',#46,1.) ;
#56=VECTOR('Line Direction',#55,1.) ;
#63=VECTOR('Line Direction',#62,1.) ;
#70=VECTOR('Line Direction',#69,1.) ;
#87=VECTOR('Line Direction',#86,1.) ;
#94=VECTOR('Line Direction',#93,1.) ;
#101=VECTOR('Line Direction',#100,1.) ;
#118=VECTOR('Line Direction',#117,1.) ;
#127=VECTOR('Line Direction',#126,1.) ;
#134=VECTOR('Line Direction',#133,1.) ;
#141=VECTOR('Line Direction',#140,1.) ;
#148=VECTOR('Line Direction',#147,1.) ;
#155=VECTOR('Line Direction',#154,1.) ;
#162=VECTOR('Line Direction',#161,1.) ;
#169=VECTOR('Line Direction',#168,1.) ;
#184=VECTOR('Line Direction',#183,1.) ;
#191=VECTOR('Line Direction',#190,1.) ;
#208=VECTOR('Line Direction',#207,1.) ;
#217=VECTOR('Line Direction',#216,1.) ;
#224=VECTOR('Line Direction',#223,1.) ;
#231=VECTOR('Line Direction',#230,1.) ;
#242=VECTOR('Line Direction',#241,1.) ;
#249=VECTOR('Line Direction',#248,1.) ;
#266=VECTOR('Line Direction',#265,1.) ;
#283=VECTOR('Line Direction',#282,1.) ;
#290=VECTOR('Line Direction',#289,1.) ;
#306=VECTOR('Line Direction',#305,1.) ;
#315=VECTOR('Line Direction',#314,1.) ;
#322=VECTOR('Line Direction',#321,1.) ;
#329=VECTOR('Line Direction',#328,1.) ;
#334=VECTOR('Line Direction',#333,1.) ;
#341=VECTOR('Line Direction',#340,1.) ;
#356=VECTOR('Line Direction',#355,1.) ;
#365=VECTOR('Line Direction',#364,1.) ;
#372=VECTOR('Line Direction',#371,1.) ;
#379=VECTOR('Line Direction',#378,1.) ;
#396=VECTOR('Line Direction',#395,1.) ;
#412=VECTOR('Line Direction',#411,1.) ;
#417=VECTOR('Line Direction',#416,1.) ;
#422=VECTOR('Line Direction',#421,1.) ;
#429=VECTOR('Line Direction',#428,1.) ;
#449=VECTOR('Line Direction',#448,1.) ;
#466=VECTOR('Line Direction',#465,1.) ;
#473=VECTOR('Line Direction',#472,1.) ;
#484=VECTOR('Line Direction',#483,1.) ;
#493=VECTOR('Line Direction',#492,1.) ;
#500=VECTOR('Line Direction',#499,1.) ;
#507=VECTOR('Line Direction',#506,1.) ;
#524=VECTOR('Line Direction',#523,1.) ;
#529=VECTOR('Line Direction',#528,1.) ;
#546=VECTOR('Line Direction',#545,1.) ;
#563=VECTOR('Line Direction',#562,1.) ;
#592=VECTOR('Line Direction',#591,1.) ;
#609=VECTOR('Line Direction',#608,1.) ;
#707=VECTOR('Line Direction',#706,1.) ;
#716=VECTOR('Line Direction',#715,1.) ;
#723=VECTOR('Line Direction',#722,1.) ;
#730=VECTOR('Line Direction',#729,1.) ;
#737=VECTOR('Line Direction',#736,1.) ;
#744=VECTOR('Line Direction',#743,1.) ;
#751=VECTOR('Line Direction',#750,1.) ;
#758=VECTOR('Line Direction',#757,1.) ;
#765=VECTOR('Line Direction',#764,1.) ;
#787=VECTOR('Line Direction',#786,1.) ;
#796=VECTOR('Line Direction',#795,1.) ;
#803=VECTOR('Line Direction',#802,1.) ;
#810=VECTOR('Line Direction',#809,1.) ;
#817=VECTOR('Line Direction',#816,1.) ;
#824=VECTOR('Line Direction',#823,1.) ;
#837=VECTOR('Line Direction',#836,1.) ;
#844=VECTOR('Line Direction',#843,1.) ;
#857=VECTOR('Line Direction',#856,1.) ;
#881=VECTOR('Line Direction',#880,1.) ;
#888=VECTOR('Line Direction',#887,1.) ;
#895=VECTOR('Line Direction',#894,1.) ;
#900=VECTOR('Line Direction',#899,1.) ;
#919=VECTOR('Line Direction',#918,1.) ;
#924=VECTOR('Line Direction',#923,1.) ;
#931=VECTOR('Line Direction',#930,1.) ;
#938=VECTOR('Line Direction',#937,1.) ;
#957=VECTOR('Line Direction',#956,1.) ;
#964=VECTOR('Line Direction',#963,1.) ;
#981=VECTOR('Line Direction',#980,1.) ;
#988=VECTOR('Line Direction',#987,1.) ;
#1005=VECTOR('Line Direction',#1004,1.) ;
#1012=VECTOR('Line Direction',#1011,1.) ;
#1024=VECTOR('Line Direction',#1023,1.) ;
#1031=VECTOR('Line Direction',#1030,1.) ;
#1048=VECTOR('Line Direction',#1047,1.) ;
#1055=VECTOR('Line Direction',#1054,1.) ;
#1067=VECTOR('Line Direction',#1066,1.) ;
#1084=VECTOR('Line Direction',#1083,1.) ;
#1091=VECTOR('Line Direction',#1090,1.) ;
#1098=VECTOR('Line Direction',#1097,1.) ;
#1110=VECTOR('Line Direction',#1109,1.) ;
#1117=VECTOR('Line Direction',#1116,1.) ;
#1134=VECTOR('Line Direction',#1133,1.) ;
#1151=VECTOR('Line Direction',#1150,1.) ;
#1188=VECTOR('Line Direction',#1187,1.) ;
#1195=VECTOR('Line Direction',#1194,1.) ;
#1211=VECTOR('Line Direction',#1210,1.) ;
#1218=VECTOR('Line Direction',#1217,1.) ;
#1234=VECTOR('Line Direction',#1233,1.) ;
#20=UNCERTAINTY_MEASURE_WITH_UNIT(LENGTH_MEASURE(0.005),#17,'distance_accuracy_value','CONFUSED CURVE UNCERTAINTY') ;
#22=UNCERTAINTY_MEASURE_WITH_UNIT(LENGTH_MEASURE(0.005),#17,'distance_accuracy_value','CONFUSED CURVE UNCERTAINTY') ;
#668=UNCERTAINTY_MEASURE_WITH_UNIT(LENGTH_MEASURE(0.005),#17,'distance_accuracy_value','CONFUSED CURVE UNCERTAINTY') ;
#689=UNCERTAINTY_MEASURE_WITH_UNIT(LENGTH_MEASURE(0.005),#17,'distance_accuracy_value','CONFUSED CURVE UNCERTAINTY') ;
#657=CONTEXT_DEPENDENT_SHAPE_REPRESENTATION(#658,#656) ;
#678=CONTEXT_DEPENDENT_SHAPE_REPRESENTATION(#679,#677) ;
#1264=CONTEXT_DEPENDENT_SHAPE_REPRESENTATION(#1265,#1263) ;
#654=SHAPE_REPRESENTATION_RELATIONSHIP(' ',' ',#24,#653) ;
#1261=SHAPE_REPRESENTATION_RELATIONSHIP(' ',' ',#691,#1260) ;
#74=ORIENTED_EDGE('',*,*,#53,.T.) ;
#75=ORIENTED_EDGE('',*,*,#60,.F.) ;
#76=ORIENTED_EDGE('',*,*,#67,.T.) ;
#77=ORIENTED_EDGE('',*,*,#72,.T.) ;
#105=ORIENTED_EDGE('',*,*,#91,.T.) ;
#106=ORIENTED_EDGE('',*,*,#72,.F.) ;
#107=ORIENTED_EDGE('',*,*,#98,.T.) ;
#108=ORIENTED_EDGE('',*,*,#103,.T.) ;
#173=ORIENTED_EDGE('',*,*,#124,.F.) ;
#174=ORIENTED_EDGE('',*,*,#131,.T.) ;
#175=ORIENTED_EDGE('',*,*,#138,.T.) ;
#176=ORIENTED_EDGE('',*,*,#145,.T.) ;
#177=ORIENTED_EDGE('',*,*,#152,.F.) ;
#178=ORIENTED_EDGE('',*,*,#159,.T.) ;
#179=ORIENTED_EDGE('',*,*,#166,.T.) ;
#180=ORIENTED_EDGE('',*,*,#171,.F.) ;
#195=ORIENTED_EDGE('',*,*,#188,.F.) ;
#196=ORIENTED_EDGE('',*,*,#193,.F.) ;
#197=ORIENTED_EDGE('',*,*,#98,.F.) ;
#198=ORIENTED_EDGE('',*,*,#67,.F.) ;
#235=ORIENTED_EDGE('',*,*,#214,.F.) ;
#236=ORIENTED_EDGE('',*,*,#221,.T.) ;
#237=ORIENTED_EDGE('',*,*,#228,.T.) ;
#238=ORIENTED_EDGE('',*,*,#233,.F.) ;
#253=ORIENTED_EDGE('',*,*,#53,.F.) ;
#254=ORIENTED_EDGE('',*,*,#91,.F.) ;
#255=ORIENTED_EDGE('',*,*,#246,.F.) ;
#256=ORIENTED_EDGE('',*,*,#251,.F.) ;
#270=ORIENTED_EDGE('',*,*,#246,.T.) ;
#271=ORIENTED_EDGE('',*,*,#103,.F.) ;
#272=ORIENTED_EDGE('',*,*,#193,.T.) ;
#273=ORIENTED_EDGE('',*,*,#268,.T.) ;
#294=ORIENTED_EDGE('',*,*,#287,.T.) ;
#295=ORIENTED_EDGE('',*,*,#131,.F.) ;
#296=ORIENTED_EDGE('',*,*,#292,.T.) ;
#345=ORIENTED_EDGE('',*,*,#312,.F.) ;
#346=ORIENTED_EDGE('',*,*,#319,.T.) ;
#347=ORIENTED_EDGE('',*,*,#326,.T.) ;
#348=ORIENTED_EDGE('',*,*,#331,.T.) ;
#349=ORIENTED_EDGE('',*,*,#138,.F.) ;
#350=ORIENTED_EDGE('',*,*,#287,.F.) ;
#351=ORIENTED_EDGE('',*,*,#338,.T.) ;
#352=ORIENTED_EDGE('',*,*,#343,.F.) ;
#383=ORIENTED_EDGE('',*,*,#362,.F.) ;
#384=ORIENTED_EDGE('',*,*,#369,.F.) ;
#385=ORIENTED_EDGE('',*,*,#376,.F.) ;
#386=ORIENTED_EDGE('',*,*,#381,.F.) ;
#400=ORIENTED_EDGE('',*,*,#145,.F.) ;
#401=ORIENTED_EDGE('',*,*,#331,.F.) ;
#402=ORIENTED_EDGE('',*,*,#398,.F.) ;
#433=ORIENTED_EDGE('',*,*,#414,.F.) ;
#434=ORIENTED_EDGE('',*,*,#159,.F.) ;
#435=ORIENTED_EDGE('',*,*,#419,.F.) ;
#436=ORIENTED_EDGE('',*,*,#319,.F.) ;
#437=ORIENTED_EDGE('',*,*,#426,.F.) ;
#438=ORIENTED_EDGE('',*,*,#431,.F.) ;
#439=ORIENTED_EDGE('',*,*,#221,.F.) ;
#453=ORIENTED_EDGE('',*,*,#166,.F.) ;
#454=ORIENTED_EDGE('',*,*,#414,.T.) ;
#455=ORIENTED_EDGE('',*,*,#214,.T.) ;
#456=ORIENTED_EDGE('',*,*,#451,.F.) ;
#477=ORIENTED_EDGE('',*,*,#228,.F.) ;
#478=ORIENTED_EDGE('',*,*,#431,.T.) ;
#479=ORIENTED_EDGE('',*,*,#470,.T.) ;
#480=ORIENTED_EDGE('',*,*,#475,.F.) ;
#511=ORIENTED_EDGE('',*,*,#490,.F.) ;
#512=ORIENTED_EDGE('',*,*,#497,.F.) ;
#513=ORIENTED_EDGE('',*,*,#504,.F.) ;
#514=ORIENTED_EDGE('',*,*,#509,.F.) ;
#533=ORIENTED_EDGE('',*,*,#490,.T.) ;
#534=ORIENTED_EDGE('',*,*,#526,.F.) ;
#535=ORIENTED_EDGE('',*,*,#381,.T.) ;
#536=ORIENTED_EDGE('',*,*,#531,.T.) ;
#550=ORIENTED_EDGE('',*,*,#497,.T.) ;
#551=ORIENTED_EDGE('',*,*,#531,.F.) ;
#552=ORIENTED_EDGE('',*,*,#376,.T.) ;
#553=ORIENTED_EDGE('',*,*,#548,.T.) ;
#567=ORIENTED_EDGE('',*,*,#504,.T.) ;
#568=ORIENTED_EDGE('',*,*,#548,.F.) ;
#569=ORIENTED_EDGE('',*,*,#369,.T.) ;
#570=ORIENTED_EDGE('',*,*,#565,.T.) ;
#579=ORIENTED_EDGE('',*,*,#509,.T.) ;
#580=ORIENTED_EDGE('',*,*,#565,.F.) ;
#581=ORIENTED_EDGE('',*,*,#362,.T.) ;
#582=ORIENTED_EDGE('',*,*,#526,.T.) ;
#596=ORIENTED_EDGE('',*,*,#470,.F.) ;
#597=ORIENTED_EDGE('',*,*,#426,.T.) ;
#598=ORIENTED_EDGE('',*,*,#312,.T.) ;
#599=ORIENTED_EDGE('',*,*,#594,.F.) ;
#613=ORIENTED_EDGE('',*,*,#233,.T.) ;
#614=ORIENTED_EDGE('',*,*,#475,.T.) ;
#615=ORIENTED_EDGE('',*,*,#594,.T.) ;
#616=ORIENTED_EDGE('',*,*,#343,.T.) ;
#617=ORIENTED_EDGE('',*,*,#611,.T.) ;
#618=ORIENTED_EDGE('',*,*,#171,.T.) ;
#619=ORIENTED_EDGE('',*,*,#451,.T.) ;
#628=ORIENTED_EDGE('',*,*,#326,.F.) ;
#629=ORIENTED_EDGE('',*,*,#419,.T.) ;
#630=ORIENTED_EDGE('',*,*,#152,.T.) ;
#631=ORIENTED_EDGE('',*,*,#398,.T.) ;
#635=ORIENTED_EDGE('',*,*,#124,.T.) ;
#636=ORIENTED_EDGE('',*,*,#611,.F.) ;
#637=ORIENTED_EDGE('',*,*,#338,.F.) ;
#638=ORIENTED_EDGE('',*,*,#292,.F.) ;
#647=ORIENTED_EDGE('',*,*,#251,.T.) ;
#648=ORIENTED_EDGE('',*,*,#268,.F.) ;
#649=ORIENTED_EDGE('',*,*,#188,.T.) ;
#650=ORIENTED_EDGE('',*,*,#60,.T.) ;
#769=ORIENTED_EDGE('',*,*,#713,.F.) ;
#770=ORIENTED_EDGE('',*,*,#720,.T.) ;
#771=ORIENTED_EDGE('',*,*,#727,.T.) ;
#772=ORIENTED_EDGE('',*,*,#734,.T.) ;
#773=ORIENTED_EDGE('',*,*,#741,.T.) ;
#774=ORIENTED_EDGE('',*,*,#748,.T.) ;
#775=ORIENTED_EDGE('',*,*,#755,.T.) ;
#776=ORIENTED_EDGE('',*,*,#762,.T.) ;
#777=ORIENTED_EDGE('',*,*,#767,.T.) ;
#861=ORIENTED_EDGE('',*,*,#793,.F.) ;
#862=ORIENTED_EDGE('',*,*,#800,.F.) ;
#863=ORIENTED_EDGE('',*,*,#807,.T.) ;
#864=ORIENTED_EDGE('',*,*,#814,.F.) ;
#865=ORIENTED_EDGE('',*,*,#821,.F.) ;
#866=ORIENTED_EDGE('',*,*,#828,.T.) ;
#867=ORIENTED_EDGE('',*,*,#834,.F.) ;
#868=ORIENTED_EDGE('',*,*,#841,.T.) ;
#869=ORIENTED_EDGE('',*,*,#848,.T.) ;
#870=ORIENTED_EDGE('',*,*,#854,.T.) ;
#871=ORIENTED_EDGE('',*,*,#859,.F.) ;
#904=ORIENTED_EDGE('',*,*,#767,.F.) ;
#905=ORIENTED_EDGE('',*,*,#885,.T.) ;
#906=ORIENTED_EDGE('',*,*,#892,.T.) ;
#907=ORIENTED_EDGE('',*,*,#897,.F.) ;
#908=ORIENTED_EDGE('',*,*,#828,.F.) ;
#909=ORIENTED_EDGE('',*,*,#902,.F.) ;
#942=ORIENTED_EDGE('',*,*,#921,.T.) ;
#943=ORIENTED_EDGE('',*,*,#859,.T.) ;
#944=ORIENTED_EDGE('',*,*,#928,.T.) ;
#945=ORIENTED_EDGE('',*,*,#935,.T.) ;
#946=ORIENTED_EDGE('',*,*,#940,.F.) ;
#947=ORIENTED_EDGE('',*,*,#720,.F.) ;
#968=ORIENTED_EDGE('',*,*,#961,.T.) ;
#969=ORIENTED_EDGE('',*,*,#966,.F.) ;
#970=ORIENTED_EDGE('',*,*,#727,.F.) ;
#971=ORIENTED_EDGE('',*,*,#940,.T.) ;
#992=ORIENTED_EDGE('',*,*,#985,.T.) ;
#993=ORIENTED_EDGE('',*,*,#990,.F.) ;
#994=ORIENTED_EDGE('',*,*,#734,.F.) ;
#995=ORIENTED_EDGE('',*,*,#966,.T.) ;
#1016=ORIENTED_EDGE('',*,*,#1009,.T.) ;
#1017=ORIENTED_EDGE('',*,*,#1014,.F.) ;
#1018=ORIENTED_EDGE('',*,*,#741,.F.) ;
#1019=ORIENTED_EDGE('',*,*,#990,.T.) ;
#1035=ORIENTED_EDGE('',*,*,#1028,.T.) ;
#1036=ORIENTED_EDGE('',*,*,#1033,.F.) ;
#1037=ORIENTED_EDGE('',*,*,#748,.F.) ;
#1038=ORIENTED_EDGE('',*,*,#1014,.T.) ;
#1059=ORIENTED_EDGE('',*,*,#1052,.T.) ;
#1060=ORIENTED_EDGE('',*,*,#1057,.F.) ;
#1061=ORIENTED_EDGE('',*,*,#755,.F.) ;
#1062=ORIENTED_EDGE('',*,*,#1033,.T.) ;
#1071=ORIENTED_EDGE('',*,*,#1069,.T.) ;
#1072=ORIENTED_EDGE('',*,*,#885,.F.) ;
#1073=ORIENTED_EDGE('',*,*,#762,.F.) ;
#1074=ORIENTED_EDGE('',*,*,#1057,.T.) ;
#1102=ORIENTED_EDGE('',*,*,#841,.F.) ;
#1103=ORIENTED_EDGE('',*,*,#1088,.T.) ;
#1104=ORIENTED_EDGE('',*,*,#1095,.T.) ;
#1105=ORIENTED_EDGE('',*,*,#1100,.F.) ;
#1121=ORIENTED_EDGE('',*,*,#848,.F.) ;
#1122=ORIENTED_EDGE('',*,*,#1100,.T.) ;
#1123=ORIENTED_EDGE('',*,*,#1114,.T.) ;
#1124=ORIENTED_EDGE('',*,*,#1119,.F.) ;
#1138=ORIENTED_EDGE('',*,*,#854,.F.) ;
#1139=ORIENTED_EDGE('',*,*,#1119,.T.) ;
#1140=ORIENTED_EDGE('',*,*,#1136,.T.) ;
#1141=ORIENTED_EDGE('',*,*,#928,.F.) ;
#1155=ORIENTED_EDGE('',*,*,#1095,.F.) ;
#1156=ORIENTED_EDGE('',*,*,#1153,.F.) ;
#1157=ORIENTED_EDGE('',*,*,#892,.F.) ;
#1158=ORIENTED_EDGE('',*,*,#1069,.F.) ;
#1159=ORIENTED_EDGE('',*,*,#1052,.F.) ;
#1160=ORIENTED_EDGE('',*,*,#1028,.F.) ;
#1161=ORIENTED_EDGE('',*,*,#1009,.F.) ;
#1162=ORIENTED_EDGE('',*,*,#985,.F.) ;
#1163=ORIENTED_EDGE('',*,*,#961,.F.) ;
#1164=ORIENTED_EDGE('',*,*,#935,.F.) ;
#1165=ORIENTED_EDGE('',*,*,#1136,.F.) ;
#1166=ORIENTED_EDGE('',*,*,#1114,.F.) ;
#1175=ORIENTED_EDGE('',*,*,#897,.T.) ;
#1176=ORIENTED_EDGE('',*,*,#1153,.T.) ;
#1177=ORIENTED_EDGE('',*,*,#1088,.F.) ;
#1178=ORIENTED_EDGE('',*,*,#834,.T.) ;
#1199=ORIENTED_EDGE('',*,*,#1192,.F.) ;
#1200=ORIENTED_EDGE('',*,*,#800,.T.) ;
#1201=ORIENTED_EDGE('',*,*,#1197,.F.) ;
#1222=ORIENTED_EDGE('',*,*,#1215,.T.) ;
#1223=ORIENTED_EDGE('',*,*,#1220,.T.) ;
#1224=ORIENTED_EDGE('',*,*,#814,.T.) ;
#1238=ORIENTED_EDGE('',*,*,#807,.F.) ;
#1239=ORIENTED_EDGE('',*,*,#1192,.T.) ;
#1240=ORIENTED_EDGE('',*,*,#1236,.T.) ;
#1241=ORIENTED_EDGE('',*,*,#1215,.F.) ;
#1250=ORIENTED_EDGE('',*,*,#1236,.F.) ;
#1251=ORIENTED_EDGE('',*,*,#1197,.T.) ;
#1252=ORIENTED_EDGE('',*,*,#793,.T.) ;
#1253=ORIENTED_EDGE('',*,*,#921,.F.) ;
#1254=ORIENTED_EDGE('',*,*,#713,.T.) ;
#1255=ORIENTED_EDGE('',*,*,#902,.T.) ;
#1256=ORIENTED_EDGE('',*,*,#821,.T.) ;
#1257=ORIENTED_EDGE('',*,*,#1220,.F.) ;
#199=FACE_BOUND('',#194,.T.) ;
#257=FACE_BOUND('',#252,.T.) ;
#387=FACE_BOUND('',#382,.T.) ;
#515=FACE_BOUND('',#510,.T.) ;
#39=CLOSED_SHELL('Closed Shell',(#79,#110,#200,#258,#275,#298,#388,#404,#441,#458,#516,#538,#555,#572,#584,#601,#621,#633,#640,#652)) ;
#699=CLOSED_SHELL('Closed Shell',(#779,#873,#911,#949,#973,#997,#1021,#1040,#1064,#1076,#1107,#1126,#1143,#1168,#1180,#1203,#1226,#1243,#1259)) ;
#653=ADVANCED_BREP_SHAPE_REPRESENTATION('NONE',(#30),#23) ;
#1260=ADVANCED_BREP_SHAPE_REPRESENTATION('NONE',(#697),#690) ;
#79=ADVANCED_FACE('PartBody',(#78),#44,.F.) ;
#110=ADVANCED_FACE('PartBody',(#109),#84,.F.) ;
#200=ADVANCED_FACE('PartBody',(#181,#199),#115,.T.) ;
#258=ADVANCED_FACE('PartBody',(#239,#257),#205,.T.) ;
#275=ADVANCED_FACE('PartBody',(#274),#263,.F.) ;
#298=ADVANCED_FACE('PartBody',(#297),#280,.T.) ;
#388=ADVANCED_FACE('PartBody',(#353,#387),#303,.T.) ;
#404=ADVANCED_FACE('PartBody',(#403),#393,.T.) ;
#441=ADVANCED_FACE('PartBody',(#440),#409,.F.) ;
#458=ADVANCED_FACE('PartBody',(#457),#446,.T.) ;
#516=ADVANCED_FACE('PartBody',(#481,#515),#463,.T.) ;
#538=ADVANCED_FACE('PartBody',(#537),#521,.F.) ;
#555=ADVANCED_FACE('PartBody',(#554),#543,.F.) ;
#572=ADVANCED_FACE('PartBody',(#571),#560,.F.) ;
#584=ADVANCED_FACE('PartBody',(#583),#577,.F.) ;
#601=ADVANCED_FACE('PartBody',(#600),#589,.T.) ;
#621=ADVANCED_FACE('PartBody',(#620),#606,.T.) ;
#633=ADVANCED_FACE('PartBody',(#632),#626,.T.) ;
#640=ADVANCED_FACE('PartBody',(#639),#626,.T.) ;
#652=ADVANCED_FACE('PartBody',(#651),#645,.F.) ;
#779=ADVANCED_FACE('PartBody',(#778),#704,.T.) ;
#873=ADVANCED_FACE('PartBody',(#872),#784,.T.) ;
#911=ADVANCED_FACE('PartBody',(#910),#878,.T.) ;
#949=ADVANCED_FACE('PartBody',(#948),#916,.F.) ;
#973=ADVANCED_FACE('PartBody',(#972),#954,.F.) ;
#997=ADVANCED_FACE('PartBody',(#996),#978,.T.) ;
#1021=ADVANCED_FACE('PartBody',(#1020),#1002,.F.) ;
#1040=ADVANCED_FACE('PartBody',(#1039),#1002,.F.) ;
#1064=ADVANCED_FACE('PartBody',(#1063),#1045,.F.) ;
#1076=ADVANCED_FACE('PartBody',(#1075),#954,.F.) ;
#1107=ADVANCED_FACE('PartBody',(#1106),#1081,.F.) ;
#1126=ADVANCED_FACE('PartBody',(#1125),#1081,.F.) ;
#1143=ADVANCED_FACE('PartBody',(#1142),#1131,.F.) ;
#1168=ADVANCED_FACE('PartBody',(#1167),#1148,.F.) ;
#1180=ADVANCED_FACE('PartBody',(#1179),#1173,.T.) ;
#1203=ADVANCED_FACE('PartBody',(#1202),#1185,.F.) ;
#1226=ADVANCED_FACE('PartBody',(#1225),#1208,.F.) ;
#1243=ADVANCED_FACE('PartBody',(#1242),#1231,.T.) ;
#1259=ADVANCED_FACE('PartBody',(#1258),#1248,.F.) ;
#4=APPLICATION_PROTOCOL_DEFINITION('international standard','automotive_design',2010,#1) ;
#829=B_SPLINE_CURVE_WITH_KNOTS('',1,(#830,#831),.UNSPECIFIED.,.F.,.U.,(2,2),(-11.3137085,11.3137085),.UNSPECIFIED.) ;
#849=B_SPLINE_CURVE_WITH_KNOTS('',1,(#850,#851),.UNSPECIFIED.,.F.,.U.,(2,2),(-11.3137085,11.3137085),.UNSPECIFIED.) ;
#30=MANIFOLD_SOLID_BREP('PartBody',#39) ;
#697=MANIFOLD_SOLID_BREP('PartBody',#699) ;
#31=COLOUR_RGB('Colour',0.823529411765,0.823529411765,1.) ;
#53=EDGE_CURVE('',#50,#52,#48,.T.) ;
#60=EDGE_CURVE('',#59,#52,#57,.T.) ;
#67=EDGE_CURVE('',#59,#66,#64,.F.) ;
#72=EDGE_CURVE('',#66,#50,#71,.T.) ;
#91=EDGE_CURVE('',#90,#50,#88,.T.) ;
#98=EDGE_CURVE('',#66,#97,#95,.F.) ;
#103=EDGE_CURVE('',#97,#90,#102,.T.) ;
#124=EDGE_CURVE('',#121,#123,#119,.T.) ;
#131=EDGE_CURVE('',#121,#130,#128,.T.) ;
#138=EDGE_CURVE('',#130,#137,#135,.T.) ;
#145=EDGE_CURVE('',#137,#144,#142,.T.) ;
#152=EDGE_CURVE('',#151,#144,#149,.T.) ;
#159=EDGE_CURVE('',#151,#158,#156,.T.) ;
#166=EDGE_CURVE('',#158,#165,#163,.T.) ;
#171=EDGE_CURVE('',#123,#165,#170,.T.) ;
#188=EDGE_CURVE('',#187,#59,#185,.F.) ;
#193=EDGE_CURVE('',#97,#187,#192,.F.) ;
#214=EDGE_CURVE('',#211,#213,#209,.T.) ;
#221=EDGE_CURVE('',#211,#220,#218,.T.) ;
#228=EDGE_CURVE('',#220,#227,#225,.T.) ;
#233=EDGE_CURVE('',#213,#227,#232,.T.) ;
#246=EDGE_CURVE('',#245,#90,#243,.T.) ;
#251=EDGE_CURVE('',#52,#245,#250,.T.) ;
#268=EDGE_CURVE('',#187,#245,#267,.T.) ;
#287=EDGE_CURVE('',#286,#130,#284,.T.) ;
#292=EDGE_CURVE('',#121,#286,#291,.T.) ;
#312=EDGE_CURVE('',#309,#311,#307,.T.) ;
#319=EDGE_CURVE('',#309,#318,#316,.T.) ;
#326=EDGE_CURVE('',#318,#325,#323,.T.) ;
#331=EDGE_CURVE('',#325,#137,#330,.T.) ;
#338=EDGE_CURVE('',#286,#337,#335,.T.) ;
#343=EDGE_CURVE('',#311,#337,#342,.T.) ;
#362=EDGE_CURVE('',#359,#361,#357,.F.) ;
#369=EDGE_CURVE('',#368,#359,#366,.F.) ;
#376=EDGE_CURVE('',#375,#368,#373,.F.) ;
#381=EDGE_CURVE('',#361,#375,#380,.F.) ;
#398=EDGE_CURVE('',#144,#325,#397,.T.) ;
#414=EDGE_CURVE('',#158,#211,#413,.T.) ;
#419=EDGE_CURVE('',#318,#151,#418,.T.) ;
#426=EDGE_CURVE('',#425,#309,#423,.T.) ;
#431=EDGE_CURVE('',#220,#425,#430,.T.) ;
#451=EDGE_CURVE('',#165,#213,#450,.T.) ;
#470=EDGE_CURVE('',#425,#469,#467,.T.) ;
#475=EDGE_CURVE('',#227,#469,#474,.T.) ;
#490=EDGE_CURVE('',#487,#489,#485,.T.) ;
#497=EDGE_CURVE('',#496,#487,#494,.T.) ;
#504=EDGE_CURVE('',#503,#496,#501,.T.) ;
#509=EDGE_CURVE('',#489,#503,#508,.T.) ;
#526=EDGE_CURVE('',#361,#489,#525,.T.) ;
#531=EDGE_CURVE('',#375,#487,#530,.T.) ;
#548=EDGE_CURVE('',#368,#496,#547,.T.) ;
#565=EDGE_CURVE('',#359,#503,#564,.T.) ;
#594=EDGE_CURVE('',#469,#311,#593,.T.) ;
#611=EDGE_CURVE('',#337,#123,#610,.T.) ;
#713=EDGE_CURVE('',#710,#712,#708,.F.) ;
#720=EDGE_CURVE('',#710,#719,#717,.T.) ;
#727=EDGE_CURVE('',#719,#726,#724,.T.) ;
#734=EDGE_CURVE('',#726,#733,#731,.F.) ;
#741=EDGE_CURVE('',#733,#740,#738,.T.) ;
#748=EDGE_CURVE('',#740,#747,#745,.F.) ;
#755=EDGE_CURVE('',#747,#754,#752,.T.) ;
#762=EDGE_CURVE('',#754,#761,#759,.F.) ;
#767=EDGE_CURVE('',#761,#712,#766,.F.) ;
#793=EDGE_CURVE('',#790,#792,#788,.F.) ;
#800=EDGE_CURVE('',#799,#790,#797,.F.) ;
#807=EDGE_CURVE('',#799,#806,#804,.T.) ;
#814=EDGE_CURVE('',#813,#806,#811,.T.) ;
#821=EDGE_CURVE('',#820,#813,#818,.F.) ;
#828=EDGE_CURVE('',#820,#827,#825,.T.) ;
#834=EDGE_CURVE('',#833,#827,#829,.T.) ;
#841=EDGE_CURVE('',#833,#840,#838,.F.) ;
#848=EDGE_CURVE('',#840,#847,#845,.F.) ;
#854=EDGE_CURVE('',#847,#853,#849,.T.) ;
#859=EDGE_CURVE('',#792,#853,#858,.T.) ;
#885=EDGE_CURVE('',#761,#884,#882,.T.) ;
#892=EDGE_CURVE('',#884,#891,#889,.F.) ;
#897=EDGE_CURVE('',#827,#891,#896,.T.) ;
#902=EDGE_CURVE('',#712,#820,#901,.T.) ;
#921=EDGE_CURVE('',#710,#792,#920,.T.) ;
#928=EDGE_CURVE('',#853,#927,#925,.T.) ;
#935=EDGE_CURVE('',#927,#934,#932,.T.) ;
#940=EDGE_CURVE('',#719,#934,#939,.T.) ;
#961=EDGE_CURVE('',#934,#960,#958,.T.) ;
#966=EDGE_CURVE('',#726,#960,#965,.T.) ;
#985=EDGE_CURVE('',#960,#984,#982,.F.) ;
#990=EDGE_CURVE('',#733,#984,#989,.T.) ;
#1009=EDGE_CURVE('',#984,#1008,#1006,.T.) ;
#1014=EDGE_CURVE('',#740,#1008,#1013,.T.) ;
#1028=EDGE_CURVE('',#1008,#1027,#1025,.F.) ;
#1033=EDGE_CURVE('',#747,#1027,#1032,.T.) ;
#1052=EDGE_CURVE('',#1027,#1051,#1049,.T.) ;
#1057=EDGE_CURVE('',#754,#1051,#1056,.T.) ;
#1069=EDGE_CURVE('',#1051,#884,#1068,.F.) ;
#1088=EDGE_CURVE('',#833,#1087,#1085,.T.) ;
#1095=EDGE_CURVE('',#1087,#1094,#1092,.F.) ;
#1100=EDGE_CURVE('',#840,#1094,#1099,.T.) ;
#1114=EDGE_CURVE('',#1094,#1113,#1111,.T.) ;
#1119=EDGE_CURVE('',#847,#1113,#1118,.T.) ;
#1136=EDGE_CURVE('',#1113,#927,#1135,.T.) ;
#1153=EDGE_CURVE('',#891,#1087,#1152,.F.) ;
#1192=EDGE_CURVE('',#799,#1191,#1189,.T.) ;
#1197=EDGE_CURVE('',#1191,#790,#1196,.T.) ;
#1215=EDGE_CURVE('',#806,#1214,#1212,.T.) ;
#1220=EDGE_CURVE('',#1214,#813,#1219,.T.) ;
#1236=EDGE_CURVE('',#1191,#1214,#1235,.T.) ;
#73=EDGE_LOOP('',(#74,#75,#76,#77)) ;
#104=EDGE_LOOP('',(#105,#106,#107,#108)) ;
#172=EDGE_LOOP('',(#173,#174,#175,#176,#177,#178,#179,#180)) ;
#194=EDGE_LOOP('',(#195,#196,#197,#198)) ;
#234=EDGE_LOOP('',(#235,#236,#237,#238)) ;
#252=EDGE_LOOP('',(#253,#254,#255,#256)) ;
#269=EDGE_LOOP('',(#270,#271,#272,#273)) ;
#293=EDGE_LOOP('',(#294,#295,#296)) ;
#344=EDGE_LOOP('',(#345,#346,#347,#348,#349,#350,#351,#352)) ;
#382=EDGE_LOOP('',(#383,#384,#385,#386)) ;
#399=EDGE_LOOP('',(#400,#401,#402)) ;
#432=EDGE_LOOP('',(#433,#434,#435,#436,#437,#438,#439)) ;
#452=EDGE_LOOP('',(#453,#454,#455,#456)) ;
#476=EDGE_LOOP('',(#477,#478,#479,#480)) ;
#510=EDGE_LOOP('',(#511,#512,#513,#514)) ;
#532=EDGE_LOOP('',(#533,#534,#535,#536)) ;
#549=EDGE_LOOP('',(#550,#551,#552,#553)) ;
#566=EDGE_LOOP('',(#567,#568,#569,#570)) ;
#578=EDGE_LOOP('',(#579,#580,#581,#582)) ;
#595=EDGE_LOOP('',(#596,#597,#598,#599)) ;
#612=EDGE_LOOP('',(#613,#614,#615,#616,#617,#618,#619)) ;
#627=EDGE_LOOP('',(#628,#629,#630,#631)) ;
#634=EDGE_LOOP('',(#635,#636,#637,#638)) ;
#646=EDGE_LOOP('',(#647,#648,#649,#650)) ;
#768=EDGE_LOOP('',(#769,#770,#771,#772,#773,#774,#775,#776,#777)) ;
#860=EDGE_LOOP('',(#861,#862,#863,#864,#865,#866,#867,#868,#869,#870,#871)) ;
#903=EDGE_LOOP('',(#904,#905,#906,#907,#908,#909)) ;
#941=EDGE_LOOP('',(#942,#943,#944,#945,#946,#947)) ;
#967=EDGE_LOOP('',(#968,#969,#970,#971)) ;
#991=EDGE_LOOP('',(#992,#993,#994,#995)) ;
#1015=EDGE_LOOP('',(#1016,#1017,#1018,#1019)) ;
#1034=EDGE_LOOP('',(#1035,#1036,#1037,#1038)) ;
#1058=EDGE_LOOP('',(#1059,#1060,#1061,#1062)) ;
#1070=EDGE_LOOP('',(#1071,#1072,#1073,#1074)) ;
#1101=EDGE_LOOP('',(#1102,#1103,#1104,#1105)) ;
#1120=EDGE_LOOP('',(#1121,#1122,#1123,#1124)) ;
#1137=EDGE_LOOP('',(#1138,#1139,#1140,#1141)) ;
#1154=EDGE_LOOP('',(#1155,#1156,#1157,#1158,#1159,#1160,#1161,#1162,#1163,#1164,#1165,#1166)) ;
#1174=EDGE_LOOP('',(#1175,#1176,#1177,#1178)) ;
#1198=EDGE_LOOP('',(#1199,#1200,#1201)) ;
#1221=EDGE_LOOP('',(#1222,#1223,#1224)) ;
#1237=EDGE_LOOP('',(#1238,#1239,#1240,#1241)) ;
#1249=EDGE_LOOP('',(#1250,#1251,#1252,#1253,#1254,#1255,#1256,#1257)) ;
#78=FACE_OUTER_BOUND('',#73,.T.) ;
#109=FACE_OUTER_BOUND('',#104,.T.) ;
#181=FACE_OUTER_BOUND('',#172,.T.) ;
#239=FACE_OUTER_BOUND('',#234,.T.) ;
#274=FACE_OUTER_BOUND('',#269,.T.) ;
#297=FACE_OUTER_BOUND('',#293,.T.) ;
#353=FACE_OUTER_BOUND('',#344,.T.) ;
#403=FACE_OUTER_BOUND('',#399,.T.) ;
#440=FACE_OUTER_BOUND('',#432,.T.) ;
#457=FACE_OUTER_BOUND('',#452,.T.) ;
#481=FACE_OUTER_BOUND('',#476,.T.) ;
#537=FACE_OUTER_BOUND('',#532,.T.) ;
#554=FACE_OUTER_BOUND('',#549,.T.) ;
#571=FACE_OUTER_BOUND('',#566,.T.) ;
#583=FACE_OUTER_BOUND('',#578,.T.) ;
#600=FACE_OUTER_BOUND('',#595,.T.) ;
#620=FACE_OUTER_BOUND('',#612,.T.) ;
#632=FACE_OUTER_BOUND('',#627,.T.) ;
#639=FACE_OUTER_BOUND('',#634,.T.) ;
#651=FACE_OUTER_BOUND('',#646,.T.) ;
#778=FACE_OUTER_BOUND('',#768,.T.) ;
#872=FACE_OUTER_BOUND('',#860,.T.) ;
#910=FACE_OUTER_BOUND('',#903,.T.) ;
#948=FACE_OUTER_BOUND('',#941,.T.) ;
#972=FACE_OUTER_BOUND('',#967,.T.) ;
#996=FACE_OUTER_BOUND('',#991,.T.) ;
#1020=FACE_OUTER_BOUND('',#1015,.T.) ;
#1039=FACE_OUTER_BOUND('',#1034,.T.) ;
#1063=FACE_OUTER_BOUND('',#1058,.T.) ;
#1075=FACE_OUTER_BOUND('',#1070,.T.) ;
#1106=FACE_OUTER_BOUND('',#1101,.T.) ;
#1125=FACE_OUTER_BOUND('',#1120,.T.) ;
#1142=FACE_OUTER_BOUND('',#1137,.T.) ;
#1167=FACE_OUTER_BOUND('',#1154,.T.) ;
#1179=FACE_OUTER_BOUND('',#1174,.T.) ;
#1202=FACE_OUTER_BOUND('',#1198,.T.) ;
#1225=FACE_OUTER_BOUND('',#1221,.T.) ;
#1242=FACE_OUTER_BOUND('',#1237,.T.) ;
#1258=FACE_OUTER_BOUND('',#1249,.T.) ;
#48=LINE('Line',#45,#47) ;
#57=LINE('Line',#54,#56) ;
#64=LINE('Line',#61,#63) ;
#71=LINE('Line',#68,#70) ;
#88=LINE('Line',#85,#87) ;
#95=LINE('Line',#92,#94) ;
#102=LINE('Line',#99,#101) ;
#119=LINE('Line',#116,#118) ;
#128=LINE('Line',#125,#127) ;
#135=LINE('Line',#132,#134) ;
#142=LINE('Line',#139,#141) ;
#149=LINE('Line',#146,#148) ;
#156=LINE('Line',#153,#155) ;
#163=LINE('Line',#160,#162) ;
#170=LINE('Line',#167,#169) ;
#185=LINE('Line',#182,#184) ;
#192=LINE('Line',#189,#191) ;
#209=LINE('Line',#206,#208) ;
#218=LINE('Line',#215,#217) ;
#225=LINE('Line',#222,#224) ;
#232=LINE('Line',#229,#231) ;
#243=LINE('Line',#240,#242) ;
#250=LINE('Line',#247,#249) ;
#267=LINE('Line',#264,#266) ;
#284=LINE('Line',#281,#283) ;
#291=LINE('Line',#288,#290) ;
#307=LINE('Line',#304,#306) ;
#316=LINE('Line',#313,#315) ;
#323=LINE('Line',#320,#322) ;
#330=LINE('Line',#327,#329) ;
#335=LINE('Line',#332,#334) ;
#342=LINE('Line',#339,#341) ;
#357=LINE('Line',#354,#356) ;
#366=LINE('Line',#363,#365) ;
#373=LINE('Line',#370,#372) ;
#380=LINE('Line',#377,#379) ;
#397=LINE('Line',#394,#396) ;
#413=LINE('Line',#410,#412) ;
#418=LINE('Line',#415,#417) ;
#423=LINE('Line',#420,#422) ;
#430=LINE('Line',#427,#429) ;
#450=LINE('Line',#447,#449) ;
#467=LINE('Line',#464,#466) ;
#474=LINE('Line',#471,#473) ;
#485=LINE('Line',#482,#484) ;
#494=LINE('Line',#491,#493) ;
#501=LINE('Line',#498,#500) ;
#508=LINE('Line',#505,#507) ;
#525=LINE('Line',#522,#524) ;
#530=LINE('Line',#527,#529) ;
#547=LINE('Line',#544,#546) ;
#564=LINE('Line',#561,#563) ;
#593=LINE('Line',#590,#592) ;
#610=LINE('Line',#607,#609) ;
#708=LINE('Line',#705,#707) ;
#717=LINE('Line',#714,#716) ;
#724=LINE('Line',#721,#723) ;
#731=LINE('Line',#728,#730) ;
#738=LINE('Line',#735,#737) ;
#745=LINE('Line',#742,#744) ;
#752=LINE('Line',#749,#751) ;
#759=LINE('Line',#756,#758) ;
#766=LINE('Line',#763,#765) ;
#788=LINE('Line',#785,#787) ;
#797=LINE('Line',#794,#796) ;
#804=LINE('Line',#801,#803) ;
#811=LINE('Line',#808,#810) ;
#818=LINE('Line',#815,#817) ;
#825=LINE('Line',#822,#824) ;
#838=LINE('Line',#835,#837) ;
#845=LINE('Line',#842,#844) ;
#858=LINE('Line',#855,#857) ;
#882=LINE('Line',#879,#881) ;
#889=LINE('Line',#886,#888) ;
#896=LINE('Line',#893,#895) ;
#901=LINE('Line',#898,#900) ;
#920=LINE('Line',#917,#919) ;
#925=LINE('Line',#922,#924) ;
#932=LINE('Line',#929,#931) ;
#939=LINE('Line',#936,#938) ;
#958=LINE('Line',#955,#957) ;
#965=LINE('Line',#962,#964) ;
#982=LINE('Line',#979,#981) ;
#989=LINE('Line',#986,#988) ;
#1006=LINE('Line',#1003,#1005) ;
#1013=LINE('Line',#1010,#1012) ;
#1025=LINE('Line',#1022,#1024) ;
#1032=LINE('Line',#1029,#1031) ;
#1049=LINE('Line',#1046,#1048) ;
#1056=LINE('Line',#1053,#1055) ;
#1068=LINE('Line',#1065,#1067) ;
#1085=LINE('Line',#1082,#1084) ;
#1092=LINE('Line',#1089,#1091) ;
#1099=LINE('Line',#1096,#1098) ;
#1111=LINE('Line',#1108,#1110) ;
#1118=LINE('Line',#1115,#1117) ;
#1135=LINE('Line',#1132,#1134) ;
#1152=LINE('Line',#1149,#1151) ;
#1189=LINE('Line',#1186,#1188) ;
#1196=LINE('Line',#1193,#1195) ;
#1212=LINE('Line',#1209,#1211) ;
#1219=LINE('Line',#1216,#1218) ;
#1235=LINE('Line',#1232,#1234) ;
#655=NEXT_ASSEMBLY_USAGE_OCCURRENCE('Part1.1','Part1.1','',#13,#28,'Part1.1') ;
#676=NEXT_ASSEMBLY_USAGE_OCCURRENCE('Part2.1','Part2.1','',#13,#674,'Part2.1') ;
#1262=NEXT_ASSEMBLY_USAGE_OCCURRENCE('figura2.1','figura2.1','',#13,#695,'figura2.1') ;
#44=PLANE('',#43) ;
#84=PLANE('',#83) ;
#115=PLANE('',#114) ;
#205=PLANE('',#204) ;
#263=PLANE('',#262) ;
#280=PLANE('',#279) ;
#303=PLANE('',#302) ;
#393=PLANE('',#392) ;
#409=PLANE('',#408) ;
#446=PLANE('',#445) ;
#463=PLANE('',#462) ;
#521=PLANE('',#520) ;
#543=PLANE('',#542) ;
#560=PLANE('',#559) ;
#577=PLANE('',#576) ;
#589=PLANE('',#588) ;
#606=PLANE('',#605) ;
#626=PLANE('',#625) ;
#645=PLANE('',#644) ;
#704=PLANE('',#703) ;
#784=PLANE('',#783) ;
#878=PLANE('',#877) ;
#916=PLANE('',#915) ;
#954=PLANE('',#953) ;
#978=PLANE('',#977) ;
#1002=PLANE('',#1001) ;
#1045=PLANE('',#1044) ;
#1081=PLANE('',#1080) ;
#1131=PLANE('',#1130) ;
#1148=PLANE('',#1147) ;
#1173=PLANE('',#1172) ;
#1185=PLANE('',#1184) ;
#1208=PLANE('',#1207) ;
#1231=PLANE('',#1230) ;
#1248=PLANE('',#1247) ;
#9=PRODUCT_CATEGORY_RELATIONSHIP(' ',' ',#7,#8) ;
#12=PRODUCT_CATEGORY_RELATIONSHIP(' ',' ',#10,#11) ;
#6=PRODUCT_DEFINITION_FORMATION_WITH_SPECIFIED_SOURCE('',' ',#5,.NOT_KNOWN.) ;
#27=PRODUCT_DEFINITION_FORMATION_WITH_SPECIFIED_SOURCE('',' ',#26,.NOT_KNOWN.) ;
#673=PRODUCT_DEFINITION_FORMATION_WITH_SPECIFIED_SOURCE('',' ',#672,.NOT_KNOWN.) ;
#694=PRODUCT_DEFINITION_FORMATION_WITH_SPECIFIED_SOURCE('',' ',#693,.NOT_KNOWN.) ;
#14=SHAPE_DEFINITION_REPRESENTATION(#16,#15) ;
#25=SHAPE_DEFINITION_REPRESENTATION(#29,#24) ;
#671=SHAPE_DEFINITION_REPRESENTATION(#675,#670) ;
#692=SHAPE_DEFINITION_REPRESENTATION(#696,#691) ;
#50=VERTEX_POINT('',#49) ;
#52=VERTEX_POINT('',#51) ;
#59=VERTEX_POINT('',#58) ;
#66=VERTEX_POINT('',#65) ;
#90=VERTEX_POINT('',#89) ;
#97=VERTEX_POINT('',#96) ;
#121=VERTEX_POINT('',#120) ;
#123=VERTEX_POINT('',#122) ;
#130=VERTEX_POINT('',#129) ;
#137=VERTEX_POINT('',#136) ;
#144=VERTEX_POINT('',#143) ;
#151=VERTEX_POINT('',#150) ;
#158=VERTEX_POINT('',#157) ;
#165=VERTEX_POINT('',#164) ;
#187=VERTEX_POINT('',#186) ;
#211=VERTEX_POINT('',#210) ;
#213=VERTEX_POINT('',#212) ;
#220=VERTEX_POINT('',#219) ;
#227=VERTEX_POINT('',#226) ;
#245=VERTEX_POINT('',#244) ;
#286=VERTEX_POINT('',#285) ;
#309=VERTEX_POINT('',#308) ;
#311=VERTEX_POINT('',#310) ;
#318=VERTEX_POINT('',#317) ;
#325=VERTEX_POINT('',#324) ;
#337=VERTEX_POINT('',#336) ;
#359=VERTEX_POINT('',#358) ;
#361=VERTEX_POINT('',#360) ;
#368=VERTEX_POINT('',#367) ;
#375=VERTEX_POINT('',#374) ;
#425=VERTEX_POINT('',#424) ;
#469=VERTEX_POINT('',#468) ;
#487=VERTEX_POINT('',#486) ;
#489=VERTEX_POINT('',#488) ;
#496=VERTEX_POINT('',#495) ;
#503=VERTEX_POINT('',#502) ;
#710=VERTEX_POINT('',#709) ;
#712=VERTEX_POINT('',#711) ;
#719=VERTEX_POINT('',#718) ;
#726=VERTEX_POINT('',#725) ;
#733=VERTEX_POINT('',#732) ;
#740=VERTEX_POINT('',#739) ;
#747=VERTEX_POINT('',#746) ;
#754=VERTEX_POINT('',#753) ;
#761=VERTEX_POINT('',#760) ;
#790=VERTEX_POINT('',#789) ;
#792=VERTEX_POINT('',#791) ;
#799=VERTEX_POINT('',#798) ;
#806=VERTEX_POINT('',#805) ;
#813=VERTEX_POINT('',#812) ;
#820=VERTEX_POINT('',#819) ;
#827=VERTEX_POINT('',#826) ;
#833=VERTEX_POINT('',#832) ;
#840=VERTEX_POINT('',#839) ;
#847=VERTEX_POINT('',#846) ;
#853=VERTEX_POINT('',#852) ;
#884=VERTEX_POINT('',#883) ;
#891=VERTEX_POINT('',#890) ;
#927=VERTEX_POINT('',#926) ;
#934=VERTEX_POINT('',#933) ;
#960=VERTEX_POINT('',#959) ;
#984=VERTEX_POINT('',#983) ;
#1008=VERTEX_POINT('',#1007) ;
#1027=VERTEX_POINT('',#1026) ;
#1051=VERTEX_POINT('',#1050) ;
#1087=VERTEX_POINT('',#1086) ;
#1094=VERTEX_POINT('',#1093) ;
#1113=VERTEX_POINT('',#1112) ;
#1191=VERTEX_POINT('',#1190) ;
#1214=VERTEX_POINT('',#1213) ;
#17=(LENGTH_UNIT()NAMED_UNIT(*)SI_UNIT(.MILLI.,.METRE.)) ;
#18=(NAMED_UNIT(*)PLANE_ANGLE_UNIT()SI_UNIT($,.RADIAN.)) ;
#19=(NAMED_UNIT(*)SI_UNIT($,.STERADIAN.)SOLID_ANGLE_UNIT()) ;
#21=(GEOMETRIC_REPRESENTATION_CONTEXT(3)GLOBAL_UNCERTAINTY_ASSIGNED_CONTEXT((#20))GLOBAL_UNIT_ASSIGNED_CONTEXT((#17,#18,#19))REPRESENTATION_CONTEXT(' ',' ')) ;
#23=(GEOMETRIC_REPRESENTATION_CONTEXT(3)GLOBAL_UNCERTAINTY_ASSIGNED_CONTEXT((#22))GLOBAL_UNIT_ASSIGNED_CONTEXT((#17,#18,#19))REPRESENTATION_CONTEXT(' ',' ')) ;
#669=(GEOMETRIC_REPRESENTATION_CONTEXT(3)GLOBAL_UNCERTAINTY_ASSIGNED_CONTEXT((#668))GLOBAL_UNIT_ASSIGNED_CONTEXT((#17,#18,#19))REPRESENTATION_CONTEXT(' ',' ')) ;
#690=(GEOMETRIC_REPRESENTATION_CONTEXT(3)GLOBAL_UNCERTAINTY_ASSIGNED_CONTEXT((#689))GLOBAL_UNIT_ASSIGNED_CONTEXT((#17,#18,#19))REPRESENTATION_CONTEXT(' ',' ')) ;
#658=(REPRESENTATION_RELATIONSHIP(' ',' ',#24,#15)REPRESENTATION_RELATIONSHIP_WITH_TRANSFORMATION(#659)SHAPE_REPRESENTATION_RELATIONSHIP()) ;
#679=(REPRESENTATION_RELATIONSHIP(' ',' ',#670,#15)REPRESENTATION_RELATIONSHIP_WITH_TRANSFORMATION(#680)SHAPE_REPRESENTATION_RELATIONSHIP()) ;
#1265=(REPRESENTATION_RELATIONSHIP(' ',' ',#691,#15)REPRESENTATION_RELATIONSHIP_WITH_TRANSFORMATION(#1266)SHAPE_REPRESENTATION_RELATIONSHIP()) ;
ENDSEC;
END-ISO-10303-21;
